<svg width="68" height="34" viewBox="0 0 68 34" fill="none" xmlns="http://www.w3.org/2000/svg">
<path d="M14.7163 18.1991C14.7163 17.8333 14.7378 17.4459 14.7808 17.0371C15.0068 15.1971 15.5878 13.5616 16.5239 12.1306C17.6645 10.3767 19.0364 9.49979 20.6396 9.49979C21.07 9.49979 21.4842 9.55359 21.8823 9.66118C23.3026 10.0701 24.0128 11.0707 24.0128 12.6632C24.0128 12.7815 24.0074 12.9053 23.9967 13.0344C23.8891 14.4762 23.2435 15.6867 22.0599 16.6659C20.8978 17.6342 19.5474 18.1184 18.0088 18.1184C17.7183 18.1184 17.4331 18.0915 17.1534 18.0377C17.1319 18.1991 17.1211 18.4251 17.1211 18.7156C17.1211 19.3397 17.2287 19.8239 17.4439 20.1682C17.7344 20.6093 18.3316 20.8676 19.2354 20.9429C19.6335 20.9429 20.0263 20.8999 20.4136 20.8138C21.0915 20.6524 21.8931 20.2704 22.8184 19.6679C23.421 19.2697 23.846 19.0707 24.0935 19.0707C24.2334 19.0707 24.3786 19.1137 24.5293 19.1998C24.8736 19.4042 25.0457 19.7001 25.0457 20.0875C25.0457 20.2166 25.0188 20.3565 24.965 20.5071C24.6745 21.2065 23.803 21.8683 22.3504 22.4923C21.0054 23.0734 19.8218 23.3639 18.7996 23.3639C18.4123 23.3639 18.0518 23.3316 17.7183 23.267C15.7169 22.8582 14.7163 21.1689 14.7163 18.1991ZM19.8971 12.0337C18.918 12.6901 18.1487 13.9382 17.5892 15.7782C17.8581 15.8427 18.1164 15.875 18.3639 15.875C19.2569 15.875 20.037 15.6006 20.7041 15.0519C21.4466 14.4493 21.8178 13.7338 21.8178 12.9053C21.8178 12.0768 21.5542 11.6571 21.0269 11.6464C20.6503 11.6571 20.2737 11.7863 19.8971 12.0337Z" fill="#030712"/>
<path d="M25.304 18.1991C25.304 17.8333 25.3255 17.4459 25.3685 17.0371C25.5945 15.1971 26.1755 13.5616 27.1116 12.1306C28.2522 10.3767 29.6241 9.49979 31.2273 9.49979C31.6577 9.49979 32.0719 9.55359 32.47 9.66118C33.8903 10.0701 34.6005 11.0707 34.6005 12.6632C34.6005 12.7815 34.5951 12.9053 34.5844 13.0344C34.4768 14.4762 33.8312 15.6867 32.6476 16.6659C31.4855 17.6342 30.1352 18.1184 28.5965 18.1184C28.306 18.1184 28.0208 18.0915 27.7411 18.0377C27.7196 18.1991 27.7088 18.4251 27.7088 18.7156C27.7088 19.3397 27.8164 19.8239 28.0316 20.1682C28.3221 20.6093 28.9193 20.8676 29.8231 20.9429C30.2212 20.9429 30.614 20.8999 31.0013 20.8138C31.6792 20.6524 32.4808 20.2704 33.4062 19.6679C34.0087 19.2697 34.4337 19.0707 34.6812 19.0707C34.8211 19.0707 34.9663 19.1137 35.117 19.1998C35.4613 19.4042 35.6334 19.7001 35.6334 20.0875C35.6334 20.2166 35.6065 20.3565 35.5527 20.5071C35.2622 21.2065 34.3907 21.8683 32.9381 22.4923C31.5931 23.0734 30.4095 23.3639 29.3873 23.3639C29 23.3639 28.6395 23.3316 28.306 23.267C26.3046 22.8582 25.304 21.1689 25.304 18.1991ZM30.4848 12.0337C29.5057 12.6901 28.7364 13.9382 28.1769 15.7782C28.4459 15.8427 28.7041 15.875 28.9516 15.875C29.8446 15.875 30.6247 15.6006 31.2918 15.0519C32.0343 14.4493 32.4055 13.7338 32.4055 12.9053C32.4055 12.0768 32.1419 11.6571 31.6146 11.6464C31.238 11.6571 30.8614 11.7863 30.4848 12.0337Z" fill="#030712"/>
<path d="M46.4955 20.8138C46.7753 20.803 47.0873 20.7116 47.4316 20.5394L47.4801 20.5233C48.6421 20.1359 49.6589 18.4197 50.5305 15.3747C50.6596 14.9228 50.8049 14.374 50.9663 13.7284C49.7934 13.4164 48.9972 12.76 48.5776 11.7594C48.4054 11.3182 48.3193 10.8394 48.3193 10.3229C48.3193 9.52668 48.6098 8.88109 49.1909 8.38614C49.6643 7.99878 50.24 7.80511 50.9178 7.80511C51.7141 7.80511 52.3812 8.07948 52.9192 8.62824C53.3603 9.08015 53.5809 9.60738 53.5809 10.2099C53.5809 10.565 53.554 11.0062 53.5002 11.5334C53.6616 11.4473 54.1189 11.1514 54.8721 10.6457C55.3132 10.3552 55.6629 10.2099 55.9212 10.2099C56.4699 10.2099 56.8896 10.4036 57.1801 10.791C57.2662 10.9093 57.3092 11.0062 57.3092 11.0815C57.3092 11.146 57.2715 11.3128 57.1962 11.5818C56.6367 13.4863 56.3569 15.1164 56.3569 16.4722C56.3569 18.226 56.6367 19.4042 57.1962 20.0068C57.4329 20.2435 57.7019 20.3619 58.0032 20.3619C58.3475 20.3619 58.864 20.1359 59.5526 19.684C60.2843 19.2428 60.8008 19.0115 61.1021 18.99C61.4248 18.99 61.6885 19.1621 61.8929 19.5065C61.9682 19.6463 62.0059 19.7755 62.0059 19.8938C62.0059 20.4856 61.6078 21.0828 60.8115 21.6853C59.8001 22.3847 58.751 22.7506 57.6643 22.7828C56.1149 22.7828 55.0496 21.8629 54.4686 20.0229C54.1888 19.1406 54.049 18.1453 54.049 17.0371C54.049 15.6598 54.1566 14.4493 54.3718 13.4056C54.0274 13.5778 53.6186 13.7069 53.1451 13.793C52.6179 16.4291 51.8217 18.5973 50.7564 20.2973C50.1969 21.1796 49.6213 21.8252 49.0295 22.2341C48.1041 22.8689 47.1626 23.1863 46.205 23.1863C44.0853 23.1863 42.8587 21.6692 42.5251 18.6349C42.4606 18.0001 42.4283 17.2738 42.4283 16.456C42.4283 16.1763 42.4391 15.762 42.4606 15.2133C42.4821 14.6968 42.4929 14.3202 42.4929 14.0835C42.4929 12.9752 42.3745 12.3673 42.1378 12.2597C42.1163 12.2489 42.1001 12.2436 42.0894 12.2436C41.433 12.2436 40.5776 13.5724 39.5231 16.2301C38.7377 18.2099 38.1943 19.91 37.893 21.3303C37.8607 21.4917 37.8392 21.6262 37.8285 21.7338C37 28.1574 36.5642 31.6328 36.5211 32.1601C36.4566 32.9025 36.1714 33.4459 35.6657 33.7902C35.4505 33.9301 35.2407 34 35.0363 34C34.6166 34 34.2938 33.7848 34.0679 33.3544C33.928 33.0854 33.8581 32.7734 33.8581 32.4183L36.6503 11.146C36.7794 10.1239 37.0807 9.52131 37.5541 9.33839C37.694 9.28459 37.8392 9.25769 37.9899 9.25769C38.6032 9.25769 38.9582 9.55896 39.0551 10.1615C39.0766 10.3122 39.0874 10.4843 39.0874 10.678C39.0874 10.8824 39.0605 11.259 39.0067 11.8078C39.8352 10.2799 41.008 9.51054 42.5251 9.49979C43.2999 9.49979 43.9347 9.80644 44.4296 10.4198C44.7847 10.8609 44.9622 11.3505 44.9622 11.8885C44.9622 12.0068 44.9569 12.3027 44.9461 12.7762C44.9354 13.8737 44.93 14.7398 44.93 15.3747C44.93 17.6127 44.9945 18.92 45.1236 19.2966C45.4357 20.2543 45.8607 20.76 46.3987 20.8138C46.4095 20.8138 46.4202 20.8138 46.431 20.8138H46.4955ZM51.5473 10.4359C51.5473 10.0808 51.3859 9.871 51.0631 9.80644C51.0093 9.79568 50.9609 9.7903 50.9178 9.7903C50.6166 9.7903 50.4121 9.9248 50.3045 10.1938C50.2722 10.2691 50.2561 10.3498 50.2561 10.4359C50.2669 11.0492 50.6435 11.4796 51.3859 11.7271C51.4935 11.146 51.5473 10.7157 51.5473 10.4359Z" fill="#030712"/>
<path d="M64.443 21.6853C64.443 21.4056 64.5129 21.1473 64.6528 20.9106C64.9433 20.4372 65.3576 20.2005 65.8956 20.2005C66.1753 20.2005 66.4336 20.2758 66.6703 20.4264C67.1437 20.7062 67.3804 21.1258 67.3804 21.6853C67.3804 21.9543 67.3051 22.2072 67.1545 22.4439C66.864 22.9066 66.4443 23.1379 65.8956 23.1379C65.6266 23.1379 65.3683 23.0626 65.1209 22.912C64.6689 22.6214 64.443 22.2126 64.443 21.6853Z" fill="#030712"/>
<path d="M2.4503 22.0978C2.30999 22.9095 1.89911 23.3204 1.21763 23.3304C0.987134 23.3304 0.776679 23.2653 0.586267 23.135C0.195422 22.8744 0 22.4535 0 21.8723L2.72088 1.17253C2.74093 1.01219 2.78602 0.851841 2.85617 0.691495C3.07665 0.230498 3.43242 0 3.92348 0C4.11389 0 4.29929 0.0501083 4.47968 0.150325C4.88055 0.370802 5.09602 0.711538 5.12608 1.17253L4.13394 9.24499C9.07462 3.71303 11.6702 0.84182 11.9208 0.631365C12.2715 0.280607 12.6123 0.105227 12.943 0.105227C13.1635 0.105227 13.3689 0.165357 13.5593 0.285617C13.9401 0.516116 14.1305 0.846831 14.1305 1.27776C14.1305 1.57841 14.0203 1.89409 13.7998 2.22481C13.5292 2.57557 10.4326 6.00799 4.50975 12.5221C5.16116 13.1033 5.89274 13.7648 6.70449 14.5064C10.9136 18.3046 13.3088 20.4943 13.89 21.0756C14.2608 21.4564 14.4512 21.8071 14.4613 22.1278C14.4613 22.3583 14.3911 22.5738 14.2508 22.7742C14.0103 23.145 13.6896 23.3304 13.2887 23.3304C12.938 23.3304 12.6123 23.2202 12.3116 22.9997C11.9709 22.7592 9.00446 20.0584 3.41238 14.8972C2.94136 18.6453 2.62067 21.0455 2.4503 22.0978Z" fill="#030712"/>
</svg>
